<?xml version="1.0" encoding="UTF-8"?>
<!DOCTYPE svg PUBLIC "-//W3C//DTD SVG 1.1//EN" "http://www.w3.org/Graphics/SVG/1.1/DTD/svg11.dtd">
<svg xmlns="http://www.w3.org/2000/svg" version="1.1" width="64px" height="64px" style="shape-rendering:geometricPrecision; text-rendering:geometricPrecision; image-rendering:optimizeQuality; fill-rule:evenodd; clip-rule:evenodd" xmlns:xlink="http://www.w3.org/1999/xlink">
<g><path style="opacity:0.929" fill="#c29652" d="M 19.5,2.5 C 16.0381,3.48164 12.3714,3.81497 8.5,3.5C 8.17001,21.008 8.50335,38.3414 9.5,55.5C 14.1667,55.5 18.8333,55.5 23.5,55.5C 23.5,56.1667 23.5,56.8333 23.5,57.5C 17.9066,57.8066 12.4066,57.4732 7,56.5C 6.33333,38.8333 6.33333,21.1667 7,3.5C 11.0659,2.53632 15.2325,2.20299 19.5,2.5 Z"/></g>
<g><path style="opacity:1" fill="#daab64" d="M 19.5,2.5 C 19.8333,2.5 20.1667,2.5 20.5,2.5C 20.5,5.16667 20.5,7.83333 20.5,10.5C 19.5386,8.73535 19.2053,6.73535 19.5,4.5C 16.1667,4.5 12.8333,4.5 9.5,4.5C 9.5,21.5 9.5,38.5 9.5,55.5C 8.50335,38.3414 8.17001,21.008 8.5,3.5C 12.3714,3.81497 16.0381,3.48164 19.5,2.5 Z"/></g>
<g><path style="opacity:1" fill="#687a8f" d="M 28.5,-0.5 C 30.5,-0.5 32.5,-0.5 34.5,-0.5C 36.3914,2.17173 39.0581,3.17173 42.5,2.5C 43.0065,6.00706 42.3398,9.17373 40.5,12C 34.5,12.6667 28.5,12.6667 22.5,12C 21.9558,11.2828 21.2891,10.7828 20.5,10.5C 20.5,7.83333 20.5,5.16667 20.5,2.5C 23.9419,3.17173 26.6086,2.17173 28.5,-0.5 Z M 30.5,1.5 C 35.069,2.66815 35.4023,4.33481 31.5,6.5C 28.1912,5.24708 27.8578,3.58041 30.5,1.5 Z"/></g>
<g><path style="opacity:0.929" fill="#bf9451" d="M 43.5,2.5 C 47.7675,2.20299 51.9341,2.53632 56,3.5C 56.4995,9.82458 56.6662,16.1579 56.5,22.5C 56.5,23.1667 56.1667,23.5 55.5,23.5C 55.1667,23.5 54.8333,23.5 54.5,23.5C 54.5,16.8333 54.5,10.1667 54.5,3.5C 50.6286,3.81497 46.9619,3.48164 43.5,2.5 Z"/></g>
<g><path style="opacity:1" fill="#f4c176" d="M 42.5,2.5 C 42.8333,2.5 43.1667,2.5 43.5,2.5C 46.9619,3.48164 50.6286,3.81497 54.5,3.5C 54.5,10.1667 54.5,16.8333 54.5,23.5C 54.1667,23.5 53.8333,23.5 53.5,23.5C 51.5,23.5 49.5,23.5 47.5,23.5C 46.8333,23.5 46.1667,23.5 45.5,23.5C 43.5,23.5 41.5,23.5 39.5,23.5C 38.8333,23.5 38.1667,23.5 37.5,23.5C 35.5,23.5 33.5,23.5 31.5,23.5C 30.8333,23.5 30.1667,23.5 29.5,23.5C 27.5,23.5 25.5,23.5 23.5,23.5C 23.5,25.5 23.5,27.5 23.5,29.5C 23.5,30.1667 23.5,30.8333 23.5,31.5C 23.5,33.5 23.5,35.5 23.5,37.5C 23.5,38.1667 23.5,38.8333 23.5,39.5C 23.5,41.5 23.5,43.5 23.5,45.5C 23.5,46.1667 23.5,46.8333 23.5,47.5C 23.5,49.5 23.5,51.5 23.5,53.5C 23.5,54.1667 23.5,54.8333 23.5,55.5C 18.8333,55.5 14.1667,55.5 9.5,55.5C 9.5,38.5 9.5,21.5 9.5,4.5C 12.8333,4.5 16.1667,4.5 19.5,4.5C 19.2053,6.73535 19.5386,8.73535 20.5,10.5C 21.2891,10.7828 21.9558,11.2828 22.5,12C 28.5,12.6667 34.5,12.6667 40.5,12C 42.3398,9.17373 43.0065,6.00706 42.5,2.5 Z"/></g>
<g><path style="opacity:0.071" fill="#748b9b" d="M 56.5,22.5 C 58.5,22.5 60.5,22.5 62.5,22.5C 62.5,24.8333 62.5,27.1667 62.5,29.5C 60.744,28.4479 60.0773,26.7812 60.5,24.5C 58.5853,24.7845 56.9187,24.4511 55.5,23.5C 56.1667,23.5 56.5,23.1667 56.5,22.5 Z"/></g>
<g><path style="opacity:1" fill="#f0f8fd" d="M 29.5,23.5 C 30.1667,23.5 30.8333,23.5 31.5,23.5C 31.9704,24.6935 32.9704,25.3601 34.5,25.5C 36.0296,25.3601 37.0296,24.6935 37.5,23.5C 38.1667,23.5 38.8333,23.5 39.5,23.5C 39.9704,24.6935 40.9704,25.3601 42.5,25.5C 44.0296,25.3601 45.0296,24.6935 45.5,23.5C 46.1667,23.5 46.8333,23.5 47.5,23.5C 47.9704,24.6935 48.9704,25.3601 50.5,25.5C 52.0296,25.3601 53.0296,24.6935 53.5,23.5C 53.8333,23.5 54.1667,23.5 54.5,23.5C 54.8333,23.5 55.1667,23.5 55.5,23.5C 56.9187,24.4511 58.5853,24.7845 60.5,24.5C 60.0773,26.7812 60.744,28.4479 62.5,29.5C 62.5,30.1667 62.5,30.8333 62.5,31.5C 61.3065,31.9704 60.6399,32.9704 60.5,34.5C 60.6399,36.0296 61.3065,37.0296 62.5,37.5C 62.5,38.1667 62.5,38.8333 62.5,39.5C 61.3065,39.9704 60.6399,40.9704 60.5,42.5C 60.6399,44.0296 61.3065,45.0296 62.5,45.5C 62.5,46.1667 62.5,46.8333 62.5,47.5C 61.3065,47.9704 60.6399,48.9704 60.5,50.5C 60.6399,52.0296 61.3065,53.0296 62.5,53.5C 62.5,54.1667 62.5,54.8333 62.5,55.5C 60.744,56.5521 60.0773,58.2188 60.5,60.5C 58.2188,60.0773 56.5521,60.744 55.5,62.5C 54.8333,62.5 54.1667,62.5 53.5,62.5C 53.0296,61.3065 52.0296,60.6399 50.5,60.5C 48.9704,60.6399 47.9704,61.3065 47.5,62.5C 46.8333,62.5 46.1667,62.5 45.5,62.5C 45.0296,61.3065 44.0296,60.6399 42.5,60.5C 40.9704,60.6399 39.9704,61.3065 39.5,62.5C 38.8333,62.5 38.1667,62.5 37.5,62.5C 37.0296,61.3065 36.0296,60.6399 34.5,60.5C 32.9704,60.6399 31.9704,61.3065 31.5,62.5C 30.8333,62.5 30.1667,62.5 29.5,62.5C 28.8166,60.8235 27.4832,60.1568 25.5,60.5C 25.9227,58.2188 25.256,56.5521 23.5,55.5C 23.5,54.8333 23.5,54.1667 23.5,53.5C 24.6935,53.0296 25.3601,52.0296 25.5,50.5C 25.3601,48.9704 24.6935,47.9704 23.5,47.5C 23.5,46.8333 23.5,46.1667 23.5,45.5C 24.6935,45.0296 25.3601,44.0296 25.5,42.5C 25.3601,40.9704 24.6935,39.9704 23.5,39.5C 23.5,38.8333 23.5,38.1667 23.5,37.5C 24.6935,37.0296 25.3601,36.0296 25.5,34.5C 25.3601,32.9704 24.6935,31.9704 23.5,31.5C 23.5,30.8333 23.5,30.1667 23.5,29.5C 25.1765,28.8166 25.8432,27.4832 25.5,25.5C 27.4832,25.8432 28.8166,25.1765 29.5,23.5 Z"/></g>
<g><path style="opacity:1" fill="#95a4b2" d="M 31.5,23.5 C 33.5,23.5 35.5,23.5 37.5,23.5C 37.0296,24.6935 36.0296,25.3601 34.5,25.5C 32.9704,25.3601 31.9704,24.6935 31.5,23.5 Z"/></g>
<g><path style="opacity:1" fill="#95a4b2" d="M 39.5,23.5 C 41.5,23.5 43.5,23.5 45.5,23.5C 45.0296,24.6935 44.0296,25.3601 42.5,25.5C 40.9704,25.3601 39.9704,24.6935 39.5,23.5 Z"/></g>
<g><path style="opacity:1" fill="#94a4b2" d="M 47.5,23.5 C 49.5,23.5 51.5,23.5 53.5,23.5C 53.0296,24.6935 52.0296,25.3601 50.5,25.5C 48.9704,25.3601 47.9704,24.6935 47.5,23.5 Z"/></g>
<g><path style="opacity:1" fill="#8696a3" d="M 29.5,23.5 C 28.8166,25.1765 27.4832,25.8432 25.5,25.5C 25.8432,27.4832 25.1765,28.8166 23.5,29.5C 23.5,27.5 23.5,25.5 23.5,23.5C 25.5,23.5 27.5,23.5 29.5,23.5 Z"/></g>
<g><path style="opacity:1" fill="#95a4b2" d="M 23.5,31.5 C 24.6935,31.9704 25.3601,32.9704 25.5,34.5C 25.3601,36.0296 24.6935,37.0296 23.5,37.5C 23.5,35.5 23.5,33.5 23.5,31.5 Z"/></g>
<g><path style="opacity:1" fill="#798d9f" d="M 62.5,31.5 C 62.5,33.5 62.5,35.5 62.5,37.5C 61.3065,37.0296 60.6399,36.0296 60.5,34.5C 60.6399,32.9704 61.3065,31.9704 62.5,31.5 Z"/></g>
<g><path style="opacity:1" fill="#95a4b2" d="M 23.5,39.5 C 24.6935,39.9704 25.3601,40.9704 25.5,42.5C 25.3601,44.0296 24.6935,45.0296 23.5,45.5C 23.5,43.5 23.5,41.5 23.5,39.5 Z"/></g>
<g><path style="opacity:1" fill="#798d9f" d="M 62.5,39.5 C 62.5,41.5 62.5,43.5 62.5,45.5C 61.3065,45.0296 60.6399,44.0296 60.5,42.5C 60.6399,40.9704 61.3065,39.9704 62.5,39.5 Z"/></g>
<g><path style="opacity:1" fill="#95a4b2" d="M 23.5,47.5 C 24.6935,47.9704 25.3601,48.9704 25.5,50.5C 25.3601,52.0296 24.6935,53.0296 23.5,53.5C 23.5,51.5 23.5,49.5 23.5,47.5 Z"/></g>
<g><path style="opacity:1" fill="#798d9f" d="M 62.5,47.5 C 62.5,49.5 62.5,51.5 62.5,53.5C 61.3065,53.0296 60.6399,52.0296 60.5,50.5C 60.6399,48.9704 61.3065,47.9704 62.5,47.5 Z"/></g>
<g><path style="opacity:1" fill="#7b8fa2" d="M 62.5,55.5 C 62.5,57.8333 62.5,60.1667 62.5,62.5C 60.1667,62.5 57.8333,62.5 55.5,62.5C 56.5521,60.744 58.2188,60.0773 60.5,60.5C 60.0773,58.2188 60.744,56.5521 62.5,55.5 Z"/></g>
<g><path style="opacity:0.404" fill="#798e9e" d="M 23.5,55.5 C 25.256,56.5521 25.9227,58.2188 25.5,60.5C 27.4832,60.1568 28.8166,60.8235 29.5,62.5C 27.1667,62.5 24.8333,62.5 22.5,62.5C 22.366,60.7085 22.6993,59.0418 23.5,57.5C 23.5,56.8333 23.5,56.1667 23.5,55.5 Z"/></g>
<g><path style="opacity:0.404" fill="#758a9b" d="M 37.5,62.5 C 35.5,62.5 33.5,62.5 31.5,62.5C 31.9704,61.3065 32.9704,60.6399 34.5,60.5C 36.0296,60.6399 37.0296,61.3065 37.5,62.5 Z"/></g>
<g><path style="opacity:0.404" fill="#758a9b" d="M 45.5,62.5 C 43.5,62.5 41.5,62.5 39.5,62.5C 39.9704,61.3065 40.9704,60.6399 42.5,60.5C 44.0296,60.6399 45.0296,61.3065 45.5,62.5 Z"/></g>
<g><path style="opacity:0.404" fill="#758a9b" d="M 53.5,62.5 C 51.5,62.5 49.5,62.5 47.5,62.5C 47.9704,61.3065 48.9704,60.6399 50.5,60.5C 52.0296,60.6399 53.0296,61.3065 53.5,62.5 Z"/></g>
</svg>
